<svg width="32" height="32" viewBox="0 0 32 32" fill="none" xmlns="http://www.w3.org/2000/svg">
<path d="M16 1C13.0333 1 10.1332 1.87973 7.66645 3.52796C5.19971 5.17618 3.27713 7.51886 2.14181 10.2597C1.0065 13.0006 0.709449 16.0166 1.28823 18.9263C1.86701 21.8361 3.29562 24.5088 5.3934 26.6066C7.49119 28.7044 10.1639 30.133 13.0736 30.7118C15.9834 31.2905 18.9994 30.9935 21.7403 29.8582C24.4811 28.7229 26.8238 26.8003 28.472 24.3335C30.1203 21.8668 31 18.9667 31 16C30.9955 12.0231 29.4137 8.21047 26.6016 5.39841C23.7895 2.58635 19.9769 1.00454 16 1ZM9.57143 27.1182V25.6429C9.57228 24.7906 9.9112 23.9736 10.5138 23.3709C11.1164 22.7683 11.9335 22.4294 12.7857 22.4286H19.2143C20.0665 22.4294 20.8836 22.7683 21.4862 23.3709C22.0888 23.9736 22.4277 24.7906 22.4286 25.6429V27.1182C20.4776 28.2573 18.2591 28.8575 16 28.8575C13.7409 28.8575 11.5224 28.2573 9.57143 27.1182ZM24.5639 25.5636C24.5431 24.1578 23.9706 22.8166 22.9698 21.8293C21.969 20.8419 20.6202 20.2875 19.2143 20.2857H12.7857C11.38 20.2878 10.0315 20.8423 9.03092 21.8296C8.03036 22.817 7.45795 24.158 7.43715 25.5636C5.49418 23.8287 4.124 21.5445 3.50804 19.0136C2.89208 16.4826 3.0594 13.8243 3.98783 11.3906C4.91627 8.95683 6.56203 6.8625 8.70719 5.38489C10.8524 3.90728 13.3957 3.1161 16.0005 3.1161C18.6054 3.1161 21.1487 3.90728 23.2939 5.38489C25.4391 6.8625 27.0848 8.95683 28.0132 11.3906C28.9417 13.8243 29.109 16.4826 28.493 19.0136C27.8771 21.5445 26.5069 23.8287 24.5639 25.5636Z" fill="black"/>
<path d="M16 8C15.0111 8 14.0444 8.29325 13.2222 8.84265C12.3999 9.39206 11.759 10.173 11.3806 11.0866C11.0022 12.0002 10.9031 13.0055 11.0961 13.9755C11.289 14.9454 11.7652 15.8363 12.4645 16.5355C13.1637 17.2348 14.0546 17.711 15.0246 17.9039C15.9945 18.0969 16.9998 17.9978 17.9134 17.6194C18.8271 17.241 19.6079 16.6001 20.1574 15.7779C20.7068 14.9556 21 13.9889 21 13C21 11.6739 20.4732 10.4021 19.5355 9.46447C18.5979 8.52678 17.3261 8 16 8ZM16 16C15.4067 16 14.8266 15.8241 14.3333 15.4944C13.8399 15.1648 13.4554 14.6962 13.2284 14.1481C13.0013 13.5999 12.9419 12.9967 13.0576 12.4147C13.1734 11.8328 13.4591 11.2982 13.8787 10.8787C14.2982 10.4591 14.8328 10.1734 15.4147 10.0576C15.9967 9.94189 16.5999 10.0013 17.1481 10.2284C17.6962 10.4554 18.1648 10.8399 18.4944 11.3333C18.8241 11.8266 19 12.4067 19 13C18.9992 13.7954 18.6829 14.558 18.1204 15.1204C17.558 15.6829 16.7954 15.9992 16 16Z" fill="black"/>
</svg>
