<svg width="20" height="20" viewBox="0 0 20 20" fill="none" xmlns="http://www.w3.org/2000/svg">
<path d="M1.66675 3.75H7.29758C7.626 3.74996 7.95121 3.81463 8.25463 3.94032C8.55804 4.066 8.83372 4.25024 9.06591 4.4825L11.6667 7.08333M4.16675 11.25H1.66675M7.08341 6.25L8.75008 7.91667C8.85952 8.0261 8.94632 8.15602 9.00555 8.299C9.06478 8.44199 9.09526 8.59524 9.09526 8.75C9.09526 8.90476 9.06478 9.05801 9.00555 9.201C8.94632 9.34398 8.85952 9.4739 8.75008 9.58333C8.64065 9.69277 8.51073 9.77958 8.36774 9.8388C8.22476 9.89803 8.07151 9.92851 7.91675 9.92851C7.76198 9.92851 7.60873 9.89803 7.46575 9.8388C7.32277 9.77958 7.19285 9.69277 7.08341 9.58333L5.83341 8.33333C5.11675 9.05 3.98091 9.13083 3.16925 8.5225L2.91675 8.33333" stroke="#12290A" stroke-width="1.25" stroke-linecap="round" stroke-linejoin="round"/>
<path d="M4.16675 9.16671V12.9167C4.16675 14.4884 4.16675 15.2734 4.65508 15.7617C5.14341 16.25 5.92841 16.25 7.50008 16.25H15.0001C16.5717 16.25 17.3567 16.25 17.8451 15.7617C18.3334 15.2734 18.3334 14.4884 18.3334 12.9167V10.4167C18.3334 8.84504 18.3334 8.06004 17.8451 7.57171C17.3567 7.08337 16.5717 7.08337 15.0001 7.08337H7.91675" stroke="#12290A" stroke-width="1.25" stroke-linecap="round" stroke-linejoin="round"/>
<path d="M12.7084 11.6667C12.7084 12.0535 12.5548 12.4244 12.2813 12.6979C12.0078 12.9714 11.6369 13.125 11.2501 13.125C10.8633 13.125 10.4924 12.9714 10.2189 12.6979C9.94539 12.4244 9.79175 12.0535 9.79175 11.6667C9.79175 11.2799 9.94539 10.909 10.2189 10.6355C10.4924 10.362 10.8633 10.2084 11.2501 10.2084C11.6369 10.2084 12.0078 10.362 12.2813 10.6355C12.5548 10.909 12.7084 11.2799 12.7084 11.6667Z" stroke="#12290A" stroke-width="1.25" stroke-linecap="round" stroke-linejoin="round"/>
</svg>
