<svg width="20" height="20" viewBox="0 0 20 20" fill="none" xmlns="http://www.w3.org/2000/svg">
<path d="M7.49993 11.875C8.05428 11.8749 8.59295 12.059 9.03125 12.3984C9.46954 12.7378 9.78259 13.2133 9.92118 13.75H16.8749C17.0311 13.7497 17.1817 13.8079 17.2972 13.9131C17.4126 14.0184 17.4844 14.163 17.4985 14.3185C17.5126 14.4741 17.468 14.6293 17.3734 14.7535C17.2788 14.8778 17.1411 14.9622 16.9874 14.99L16.8749 15L9.92118 15.0013C9.78306 15.5385 9.47021 16.0145 9.03187 16.3544C8.59353 16.6943 8.05461 16.8787 7.49993 16.8787C6.94526 16.8787 6.40633 16.6943 5.96799 16.3544C5.52966 16.0145 5.2168 15.5385 5.07868 15.0013L3.12493 15C2.96875 15.0003 2.81812 14.9421 2.7027 14.8369C2.58729 14.7316 2.51545 14.587 2.50134 14.4315C2.48723 14.2759 2.53186 14.1207 2.62646 13.9965C2.72105 13.8722 2.85875 13.7878 3.01243 13.76L3.12493 13.75H5.07868C5.21727 13.2133 5.53032 12.7378 5.96862 12.3984C6.40691 12.059 6.94558 11.8749 7.49993 11.875ZM7.49993 13.125C7.16841 13.125 6.85047 13.2567 6.61605 13.4911C6.38163 13.7255 6.24993 14.0435 6.24993 14.375C6.24993 14.7065 6.38163 15.0245 6.61605 15.2589C6.85047 15.4933 7.16841 15.625 7.49993 15.625C7.83145 15.625 8.14939 15.4933 8.38381 15.2589C8.61824 15.0245 8.74993 14.7065 8.74993 14.375C8.74993 14.0435 8.61824 13.7255 8.38381 13.4911C8.14939 13.2567 7.83145 13.125 7.49993 13.125ZM12.4999 3.125C13.0543 3.12486 13.593 3.30897 14.0312 3.64838C14.4695 3.98779 14.7826 4.46325 14.9212 5H16.8749C17.0311 4.99971 17.1817 5.05791 17.2972 5.16314C17.4126 5.26836 17.4844 5.41298 17.4985 5.56853C17.5126 5.72407 17.468 5.87926 17.3734 6.00354C17.2788 6.12782 17.1411 6.21217 16.9874 6.24L16.8749 6.25L14.9212 6.25125C14.7831 6.78845 14.4702 7.26447 14.0319 7.60436C13.5935 7.94425 13.0546 8.12872 12.4999 8.12872C11.9453 8.12872 11.4063 7.94425 10.968 7.60436C10.5297 7.26447 10.2168 6.78845 10.0787 6.25125L3.12493 6.25C2.96875 6.25029 2.81812 6.19209 2.7027 6.08686C2.58729 5.98164 2.51545 5.83702 2.50134 5.68147C2.48723 5.52593 2.53186 5.37074 2.62646 5.24646C2.72105 5.12218 2.85875 5.03783 3.01243 5.01L3.12493 5H10.0787C10.2173 4.46325 10.5303 3.98779 10.9686 3.64838C11.4069 3.30897 11.9456 3.12486 12.4999 3.125ZM12.4999 4.375C12.1684 4.375 11.8505 4.5067 11.616 4.74112C11.3816 4.97554 11.2499 5.29348 11.2499 5.625C11.2499 5.95652 11.3816 6.27446 11.616 6.50888C11.8505 6.7433 12.1684 6.875 12.4999 6.875C12.8315 6.875 13.1494 6.7433 13.3838 6.50888C13.6182 6.27446 13.7499 5.95652 13.7499 5.625C13.7499 5.29348 13.6182 4.97554 13.3838 4.74112C13.1494 4.5067 12.8315 4.375 12.4999 4.375Z" fill="#12290A"/>
</svg>
